<svg width="17" height="15" viewBox="0 0 17 15" fill="none" xmlns="http://www.w3.org/2000/svg">
<path d="M8.49435 2.01998C4.93541 2.01998 2.047 4.54496 2.047 7.6561C2.047 10.7672 4.93541 13.2922 8.49435 13.2922C12.0533 13.2922 14.9417 10.7672 14.9417 7.6561C14.9417 4.54496 12.0533 2.01998 8.49435 2.01998ZM8.49435 3.71081C9.5646 3.71081 10.4285 4.46605 10.4285 5.40165C10.4285 6.33725 9.5646 7.09249 8.49435 7.09249C7.42409 7.09249 6.56014 6.33725 6.56014 5.40165C6.56014 4.46605 7.42409 3.71081 8.49435 3.71081ZM8.49435 11.7141C6.88251 11.7141 5.45764 10.9927 4.62594 9.89927C4.64528 8.77769 7.20488 8.16335 8.49435 8.16335C9.77737 8.16335 12.3434 8.77769 12.3628 9.89927C11.531 10.9927 10.1062 11.7141 8.49435 11.7141Z" fill="white"/>
</svg>
